# xmcd
# 
# Track frame offsets:
#     150
#     16184
#     31656
#     48056
#     61404
#     75666
#     91285
#     108491
#     126487
#     140266
#     161899
#     181268
#     195895
#     213022
#     237045
#     255506
#     272108
#     283550
#     297024
# 
# Disc length: 4158
# 
# Revision: 2
# Processed by: cddbd v1.5.2PL0 Copyright (c) Steve Scherf et al.
# Submitted via: fre:ac v1.1beta1pre5
# 
DISCID=f8103c13
DTITLE=Various Artist - La selection officielle des fans de country CD2
DYEAR=2007
DGENRE=Country
TTITLE0=Randy Archer - Just a crasy
TTITLE1=Reba Mcentire - I'm gonna take that moutain
TTITLE2=Billy Currington - Good directions
TTITLE3=Leann Rimes - Nothin' bout love makes sense
TTITLE4=Merle Haggard - Ramblin' fever
TTITLE5=Juie Roberts - Too damn young
TTITLE6=Tracy Lawrence - Find out who your friend are
TTITLE7=Rachael Warwick - Sunshine
TTITLE8=Jhon Arthur Martinez - Rio grande
TTITLE9=Eve Selis - Blame it on the rain
TTITLE10=Peter and Rowers - I'm leavin'
TTITLE11=Genevieve Spalding - Gone to kentucky
TTITLE12=The Wilkinsons - Fast car
TTITLE13=Lucinda Williams - Are you alright
TTITLE14=Mark Chesnut - Heard it a love song
TTITLE15=Sara Petite - Coming home
TTITLE16=Moot Davis - Thick of it now
TTITLE17=Brigitte Demeyer - Honey darlin'
TTITLE18=Glwadys Ann - I feel lucky (Bonus)
EXTD=
EXTT0=
EXTT1=
EXTT2=
EXTT3=
EXTT4=
EXTT5=
EXTT6=
EXTT7=
EXTT8=
EXTT9=
EXTT10=
EXTT11=
EXTT12=
EXTT13=
EXTT14=
EXTT15=
EXTT16=
EXTT17=
EXTT18=
PLAYORDER=
